<svg xmlns="http://www.w3.org/2000/svg" width="400" height="400" viewBox="0 0 400 400">
<g>
<path d="M 326.00 294.48 C326.00,296.03 322.85,294.63 320.99,292.25 C319.81,290.74 299.41,269.76 275.67,245.64 C251.93,221.52 232.38,201.46 232.22,201.06 C232.07,200.67 249.25,183.22 270.39,162.28 L 308.83 124.21 L 306.16 121.66 C298.11,113.97 280.76,110.14 268.39,113.32 C257.71,116.06 252.51,120.10 226.54,145.83 C213.03,159.21 201.54,170.01 201.00,169.83 C200.47,169.65 192.57,162.07 183.46,153.00 C172.58,142.17 167.43,136.39 168.46,136.17 C170.00,135.85 180.84,137.71 194.42,140.62 L 201.33 142.10 L 219.42 124.16 C239.21,104.51 245.85,99.59 258.31,95.31 C265.60,92.81 267.87,92.50 279.00,92.52 C299.07,92.56 309.45,97.15 326.48,113.50 L 337.47 124.04 L 299.49 161.99 C278.61,182.87 261.37,200.40 261.19,200.94 C261.00,201.49 261.36,202.51 261.98,203.22 C263.23,204.65 269.94,214.04 277.50,224.94 C280.25,228.90 284.64,235.02 287.25,238.53 C289.86,242.04 292.00,245.38 292.00,245.96 C292.00,246.53 292.43,247.00 292.95,247.00 C293.47,247.00 294.48,248.10 295.20,249.44 C296.69,252.23 307.50,267.92 315.56,279.00 C322.07,287.93 326.00,293.77 326.00,294.48 ZM 316.64 134.50 C317.39,136.47 320.90,136.43 321.66,134.45 C322.18,133.08 319.64,130.12 317.86,130.03 C316.81,129.98 316.02,132.88 316.64,134.50 ZM 322.45 119.91 C322.82,120.51 324.18,121.00 325.47,121.00 C328.28,121.00 328.35,117.70 325.55,117.16 C323.41,116.74 321.52,118.42 322.45,119.91 ZM 325.00 128.72 C325.00,129.43 325.70,130.00 326.56,130.00 C327.42,130.00 327.84,129.55 327.50,129.00 C327.16,128.45 327.36,128.00 327.94,128.00 C328.52,128.00 329.00,127.10 329.00,126.01 C329.00,124.12 328.90,124.10 327.00,125.73 C325.90,126.67 325.00,128.02 325.00,128.72 ZM 143.67 28.18 L 146.50 28.51 L 143.39 29.65 C141.61,30.31 139.70,30.44 138.92,29.95 C137.03,28.79 139.84,27.74 143.67,28.18 ZM 309.12 106.10 C311.26,107.45 312.00,107.17 312.00,105.00 C312.00,103.90 311.35,103.00 310.56,103.00 C308.47,103.00 307.51,105.07 309.12,106.10 ZM 319.40 124.60 C319.88,125.86 320.37,126.03 321.17,125.23 C321.77,124.63 321.97,123.35 321.60,122.40 C321.12,121.14 320.63,120.97 319.83,121.77 C319.23,122.37 319.03,123.65 319.40,124.60 Z" fill="rgb(36,13,124)"/>
<path d="M 228.83 397.96 L 216.50 399.82 L 400.00 400.00 L 0.00 400.00 L 92.75 399.88 C145.67,399.81 182.92,399.40 179.50,398.94 C145.67,394.32 120.58,385.52 93.86,368.88 C68.77,353.26 44.97,328.73 29.10,302.16 C25.74,296.55 23.00,291.76 23.00,291.51 C23.00,291.27 21.47,287.80 19.60,283.79 C11.04,265.43 5.47,245.58 2.91,224.25 C2.23,218.61 1.30,214.00 0.84,214.00 C0.38,214.00 0.00,255.85 0.00,307.00 L 0.00 93.00 C0.00,145.18 0.38,186.00 0.87,186.00 C1.35,186.00 2.28,181.61 2.94,176.25 C3.60,170.89 4.82,163.12 5.66,159.00 C7.39,150.48 14.19,128.51 16.96,122.50 C17.97,120.30 19.60,116.70 20.56,114.50 C23.56,107.71 35.06,88.91 41.36,80.50 C74.55,36.25 124.39,7.89 179.50,1.93 C196.22,0.12 223.41,1.30 238.92,4.51 C252.87,7.40 274.19,14.01 281.00,17.56 C283.48,18.84 287.08,20.57 289.00,21.40 C303.83,27.77 331.21,47.88 344.50,62.15 C353.18,71.48 366.00,87.13 366.00,88.40 C366.00,88.74 367.46,91.17 369.25,93.81 C375.26,102.66 380.67,113.35 386.29,127.50 C390.17,137.28 395.22,158.66 397.10,173.25 C397.78,178.61 398.72,183.00 399.17,183.00 C399.63,183.00 400.00,141.82 400.00,91.50 L 400.00 313.00 C400.00,264.24 399.62,226.00 399.13,226.00 C398.65,226.00 397.96,228.36 397.60,231.25 C395.37,249.11 384.64,281.05 376.23,294.81 C374.66,297.39 373.09,300.25 372.75,301.16 C371.86,303.56 361.61,318.30 355.14,326.50 C348.93,334.38 335.95,347.47 326.85,355.05 C321.34,359.63 303.68,372.00 302.65,372.00 C302.41,372.00 298.58,374.05 294.13,376.55 C275.74,386.89 253.25,394.26 228.83,397.96 ZM 189.50 380.87 C203.01,382.39 225.84,380.18 243.50,375.62 C250.18,373.90 264.41,369.46 267.50,368.14 C311.47,349.30 343.65,319.26 363.54,278.50 C369.83,265.62 371.16,262.08 374.99,248.00 C380.12,229.10 381.44,219.15 381.32,200.00 C381.12,167.56 373.16,137.95 357.34,110.83 C351.11,100.16 336.71,81.95 327.37,72.95 C316.85,62.81 312.20,59.03 301.50,51.94 C297.10,49.02 293.27,46.37 293.00,46.04 C292.73,45.72 286.65,42.70 279.50,39.33 C254.59,27.59 232.82,22.25 206.00,21.29 C174.54,20.17 147.54,25.96 117.53,40.27 C111.49,43.15 105.76,46.29 104.78,47.25 C103.80,48.21 102.58,49.00 102.07,49.00 C100.08,49.00 80.17,64.72 71.19,73.37 C63.39,80.91 47.00,100.57 47.00,102.40 C47.00,102.68 45.70,104.83 44.11,107.20 C40.55,112.49 32.27,128.25 30.55,133.00 C22.00,156.66 19.42,167.89 18.09,187.25 C16.28,213.65 18.91,234.01 27.54,260.50 C30.49,269.55 38.91,286.93 44.14,294.80 C45.71,297.17 47.00,299.34 47.00,299.63 C47.00,300.29 55.42,311.36 59.46,316.00 C64.59,321.91 79.25,336.32 83.88,340.01 C90.72,345.46 105.79,355.38 113.50,359.49 C121.73,363.89 139.38,371.10 146.50,372.98 C149.25,373.70 151.93,374.68 152.45,375.15 C152.97,375.62 154.77,376.01 156.45,376.01 C158.13,376.02 161.98,376.72 165.00,377.56 C168.02,378.41 173.43,379.34 177.00,379.64 C180.57,379.94 186.20,380.49 189.50,380.87 ZM 316.64 134.50 C316.02,132.88 316.81,129.98 317.86,130.03 C319.64,130.12 322.18,133.08 321.66,134.45 C320.90,136.43 317.39,136.47 316.64,134.50 ZM 322.45 119.91 C321.52,118.42 323.41,116.74 325.55,117.16 C328.35,117.70 328.28,121.00 325.47,121.00 C324.18,121.00 322.82,120.51 322.45,119.91 ZM 325.00 128.72 C325.00,128.02 325.90,126.67 327.00,125.73 C328.90,124.10 329.00,124.12 329.00,126.01 C329.00,127.10 328.52,128.00 327.94,128.00 C327.36,128.00 327.16,128.45 327.50,129.00 C327.84,129.55 327.42,130.00 326.56,130.00 C325.70,130.00 325.00,129.43 325.00,128.72 ZM 143.67 28.18 C139.84,27.74 137.03,28.79 138.92,29.95 C139.70,30.44 141.61,30.31 143.39,29.65 L 146.50 28.51 ZM 309.12 106.10 C307.51,105.07 308.47,103.00 310.56,103.00 C311.35,103.00 312.00,103.90 312.00,105.00 C312.00,107.17 311.26,107.45 309.12,106.10 ZM 319.40 124.60 C319.03,123.65 319.23,122.37 319.83,121.77 C320.63,120.97 321.12,121.14 321.60,122.40 C321.97,123.35 321.77,124.63 321.17,125.23 C320.37,126.03 319.88,125.86 319.40,124.60 Z" fill="rgb(52,5,152)"/>
<path d="M 142.50 307.19 C135.66,309.32 118.84,310.35 112.00,309.05 C97.98,306.39 87.48,300.41 74.21,287.54 L 63.86 277.50 L 102.43 239.10 C123.64,217.97 141.00,200.48 141.00,200.22 C141.00,199.96 138.51,196.32 135.47,192.12 C132.42,187.93 127.81,181.46 125.22,177.75 C112.34,159.33 108.07,153.32 103.16,146.70 C100.23,142.74 95.73,136.38 93.16,132.57 C90.60,128.75 87.15,123.74 85.50,121.42 C83.85,119.10 80.50,114.35 78.05,110.85 C75.61,107.36 73.02,103.91 72.30,103.18 C70.62,101.47 70.64,100.00 72.35,100.00 C73.09,100.00 76.34,102.81 79.57,106.25 C88.51,115.76 160.84,189.66 166.25,194.81 C168.86,197.30 171.00,199.82 171.00,200.42 C171.00,201.02 153.63,218.58 132.39,239.46 L 93.78 277.41 L 96.64 279.79 C101.32,283.69 110.74,287.77 118.04,289.08 C123.95,290.13 125.87,290.06 132.19,288.56 C145.00,285.50 144.49,285.90 181.26,249.75 C191.75,239.44 200.82,231.00 201.42,231.00 C202.03,231.00 210.39,238.88 220.00,248.50 C232.06,260.57 236.87,266.00 235.52,266.00 C234.45,266.00 226.32,264.61 217.46,262.90 L 201.35 259.81 L 183.92 277.20 C162.67,298.43 156.67,302.77 142.50,307.19 ZM 0.00 88.50 C0.00,137.18 0.35,177.00 0.79,177.00 C1.22,177.00 2.09,173.51 2.72,169.25 C7.45,137.23 20.09,107.42 40.75,79.48 C47.00,71.03 60.91,57.00 73.00,46.96 C80.01,41.13 87.50,35.78 95.34,30.95 C74.66,43.84 56.32,60.55 41.36,80.50 C35.06,88.91 23.56,107.71 20.56,114.50 C19.60,116.70 17.97,120.30 16.96,122.50 C14.19,128.51 7.39,150.48 5.66,159.00 C4.82,163.12 3.60,170.89 2.94,176.25 C2.28,181.61 1.35,186.00 0.87,186.00 C0.38,186.00 0.00,145.18 0.00,93.00 L 0.00 88.50 ZM 0.00 0.00 L 400.00 0.00 L 304.25 0.15 C240.81,0.25 211.37,0.60 217.00,1.20 C220.82,1.61 225.00,2.21 229.33,2.96 C215.31,1.16 197.17,0.57 183.72,1.55 C187.88,1.09 191.08,0.67 191.50,0.52 C191.50,0.52 191.51,0.52 191.51,0.51 C191.51,0.32 148.85,0.12 96.25,0.08 ZM 0.00 312.00 L 0.00 307.00 C0.00,255.85 0.38,214.00 0.84,214.00 C1.30,214.00 2.23,218.61 2.91,224.25 C5.47,245.58 11.04,265.43 19.60,283.79 C20.80,286.35 21.86,288.70 22.46,290.12 C21.80,288.74 21.16,287.37 20.56,286.00 C18.99,282.42 16.95,278.53 16.02,277.33 C12.52,272.81 3.52,241.46 2.28,229.46 C0.56,212.74 0.00,232.93 0.00,312.00 ZM 397.64 168.56 C399.45,184.01 400.00,164.98 400.00,86.44 L 400.00 91.50 C400.00,141.82 399.63,183.00 399.17,183.00 C398.72,183.00 397.78,178.61 397.10,173.25 C395.22,158.66 390.17,137.28 386.29,127.50 C384.77,123.67 383.26,120.09 381.76,116.74 C389.61,134.07 395.93,154.03 397.64,168.56 ZM 25.48 296.02 C26.49,297.77 27.75,299.90 29.10,302.16 C32.83,308.42 37.00,314.55 41.53,320.49 C35.36,312.48 29.91,304.21 25.48,296.02 ZM 258.57 9.56 C267.97,12.19 276.15,15.03 281.00,17.56 C277.02,15.48 268.09,12.37 258.57,9.56 Z" fill="rgb(86,80,101)"/>
<path d="M 0.00 312.00 C0.00,232.93 0.56,212.74 2.28,229.46 C3.52,241.46 12.52,272.81 16.02,277.33 C16.95,278.53 18.99,282.42 20.56,286.00 C34.00,316.56 63.61,350.05 93.86,368.88 C120.58,385.52 145.67,394.32 179.50,398.94 C182.92,399.40 145.67,399.81 92.75,399.88 L 0.00 400.00 L 0.00 312.00 ZM 228.83 397.96 C253.25,394.26 275.74,386.89 294.13,376.55 C298.58,374.05 302.41,372.00 302.65,372.00 C303.68,372.00 321.34,359.63 326.85,355.05 C335.95,347.47 348.93,334.38 355.14,326.50 C361.61,318.30 371.86,303.56 372.75,301.16 C373.09,300.25 374.66,297.39 376.23,294.81 C384.64,281.05 395.37,249.11 397.60,231.25 C397.96,228.36 398.65,226.00 399.13,226.00 C399.62,226.00 400.00,264.24 400.00,313.00 L 400.00 400.00 L 308.25 399.91 L 216.50 399.82 L 228.83 397.96 ZM 189.50 380.87 C186.20,380.49 180.57,379.94 177.00,379.64 C173.43,379.34 168.02,378.41 165.00,377.56 C161.98,376.72 158.13,376.02 156.45,376.01 C154.77,376.01 152.97,375.62 152.45,375.15 C151.93,374.68 149.25,373.70 146.50,372.98 C139.38,371.10 121.73,363.89 113.50,359.49 C105.79,355.38 90.72,345.46 83.88,340.01 C79.25,336.32 64.59,321.91 59.46,316.00 C55.42,311.36 47.00,300.29 47.00,299.63 C47.00,299.34 45.71,297.17 44.14,294.80 C38.91,286.93 30.49,269.55 27.54,260.50 C18.91,234.01 16.28,213.65 18.09,187.25 C19.42,167.89 22.00,156.66 30.55,133.00 C32.27,128.25 40.55,112.49 44.11,107.20 C45.70,104.83 47.00,102.68 47.00,102.40 C47.00,100.57 63.39,80.91 71.19,73.37 C80.17,64.72 100.08,49.00 102.07,49.00 C102.58,49.00 103.80,48.21 104.78,47.25 C105.76,46.29 111.49,43.15 117.53,40.27 C147.54,25.96 174.54,20.17 206.00,21.29 C232.82,22.25 254.59,27.59 279.50,39.33 C286.65,42.70 292.73,45.72 293.00,46.04 C293.27,46.37 297.10,49.02 301.50,51.94 C312.20,59.03 316.85,62.81 327.37,72.95 C336.71,81.95 351.11,100.16 357.34,110.83 C373.16,137.95 381.12,167.56 381.32,200.00 C381.44,219.15 380.12,229.10 374.99,248.00 C371.16,262.08 369.83,265.62 363.54,278.50 C343.65,319.26 311.47,349.30 267.50,368.14 C264.41,369.46 250.18,373.90 243.50,375.62 C225.84,380.18 203.01,382.39 189.50,380.87 ZM 142.50 307.19 C156.67,302.77 162.67,298.43 183.92,277.20 L 201.35 259.81 L 217.46 262.90 C226.32,264.61 234.45,266.00 235.52,266.00 C236.87,266.00 232.06,260.57 220.00,248.50 C210.39,238.88 202.03,231.00 201.42,231.00 C200.82,231.00 191.75,239.44 181.26,249.75 C144.49,285.90 145.00,285.50 132.19,288.56 C125.87,290.06 123.95,290.13 118.04,289.08 C110.74,287.77 101.32,283.69 96.64,279.79 L 93.78 277.41 L 132.39 239.46 C153.63,218.58 171.00,201.02 171.00,200.42 C171.00,199.82 168.86,197.30 166.25,194.81 C160.84,189.66 88.51,115.76 79.57,106.25 C76.34,102.81 73.09,100.00 72.35,100.00 C70.64,100.00 70.62,101.47 72.30,103.18 C73.02,103.91 75.61,107.36 78.05,110.85 C80.50,114.35 83.85,119.10 85.50,121.42 C87.15,123.74 90.60,128.75 93.16,132.57 C95.73,136.38 100.23,142.74 103.16,146.70 C108.07,153.32 112.34,159.33 125.22,177.75 C127.81,181.46 132.42,187.93 135.47,192.12 C138.51,196.32 141.00,199.96 141.00,200.22 C141.00,200.48 123.64,217.97 102.43,239.10 L 63.86 277.50 L 74.21 287.54 C87.48,300.41 97.98,306.39 112.00,309.05 C118.84,310.35 135.66,309.32 142.50,307.19 ZM 326.00 294.48 C326.00,293.77 322.07,287.93 315.56,279.00 C307.50,267.92 296.69,252.23 295.20,249.44 C294.48,248.10 293.47,247.00 292.95,247.00 C292.43,247.00 292.00,246.53 292.00,245.96 C292.00,245.38 289.86,242.04 287.25,238.53 C284.64,235.02 280.25,228.90 277.50,224.94 C269.94,214.04 263.23,204.65 261.98,203.22 C261.36,202.51 261.00,201.49 261.19,200.94 C261.37,200.40 278.61,182.87 299.49,161.99 L 337.47 124.04 L 326.48 113.50 C309.45,97.15 299.07,92.56 279.00,92.52 C267.87,92.50 265.60,92.81 258.31,95.31 C245.85,99.59 239.21,104.51 219.42,124.16 L 201.33 142.10 L 194.42 140.62 C180.84,137.71 170.00,135.85 168.46,136.17 C167.43,136.39 172.58,142.17 183.46,153.00 C192.57,162.07 200.47,169.65 201.00,169.83 C201.54,170.01 213.03,159.21 226.54,145.83 C252.51,120.10 257.71,116.06 268.39,113.32 C280.76,110.14 298.11,113.97 306.16,121.66 L 308.83 124.21 L 270.39 162.28 C249.25,183.22 232.07,200.67 232.22,201.06 C232.38,201.46 251.93,221.52 275.67,245.64 C299.41,269.76 319.81,290.74 320.99,292.25 C322.85,294.63 326.00,296.03 326.00,294.48 ZM 0.00 88.50 L 0.00 0.00 L 96.25 0.08 C149.19,0.12 192.05,0.32 191.50,0.52 C190.95,0.72 185.55,1.38 179.50,2.00 C141.40,5.88 102.85,22.15 73.00,46.96 C60.91,57.00 47.00,71.03 40.75,79.48 C20.09,107.42 7.45,137.23 2.72,169.25 C2.09,173.51 1.22,177.00 0.79,177.00 C0.35,177.00 0.00,137.18 0.00,88.50 ZM 397.64 168.56 C395.08,146.80 382.19,112.86 369.25,93.81 C367.46,91.17 366.00,88.74 366.00,88.40 C366.00,87.13 353.18,71.48 344.50,62.15 C331.21,47.88 303.83,27.77 289.00,21.40 C287.08,20.57 283.48,18.84 281.00,17.56 C269.23,11.43 237.90,3.42 217.00,1.20 C211.37,0.60 240.81,0.25 304.25,0.15 L 400.00 0.00 L 400.00 86.44 C400.00,164.98 399.45,184.01 397.64,168.56 Z" fill="rgb(252,252,253)"/>
</g>
</svg>